      <svg
        xmlns="http://www.w3.org/2000/svg"
        xmlns:v="https://svgstorm.com"
        viewBox="0 0 256 256"
        width="256"
        height="256"
      >
        <g
          fill="None"
          fillOpacity="0.0"
          stroke="#000000"
          strokeOpacity="0.00"
          strokeWidth="0.3"
        >
          <path
            d="
M 0.00 256.00 
L 256.00 256.00
L 256.00 0.00
L 0.00 0.00
L 0.00 256.00
M 104.00 30.00 
C 107.18 29.57 112.34 32.39 115.23 29.23 C 118.12 26.07 120.70 25.86 124.00 24.00
C 129.33 38.59 116.18 49.58 104.00 48.00 C 91.82 46.42 85.75 58.75 78.25 66.25 C 70.75 73.75 58.42 79.82 60.00 92.00 C 61.58 104.18 50.59 117.33 36.00 112.00
C 38.48 105.58 46.14 99.81 42.00 92.00
C 36.54 83.27 25.35 93.75 20.00 96.00
C 14.67 81.41 27.82 70.42 40.00 72.00 C 52.18 73.58 58.25 61.25 65.75 53.75 C 73.25 46.25 85.58 40.18 84.00 28.00 C 82.42 15.82 93.41 2.67 108.00 8.00
C 104.88 14.66 96.47 22.70 104.00 30.00
M 200.00 97.00 
C 199.95 98.00 200.04 99.00 200.00 100.00
C 214.94 91.91 223.01 122.26 208.77 123.77 C 194.53 125.28 196.98 139.69 184.00 146.00
C 184.00 149.33 184.00 152.67 184.00 156.00
C 188.25 155.65 192.44 158.09 196.00 159.00
C 201.61 160.43 207.38 161.63 213.00 163.00
C 227.03 166.42 243.71 171.73 246.93 189.07 C 250.15 206.41 246.75 229.77 248.00 248.00
C 238.67 248.00 229.33 248.00 220.00 248.00
C 185.33 248.00 150.67 248.00 116.00 248.00
C 113.33 248.00 110.67 248.00 108.00 248.00
C 102.67 248.00 97.33 248.00 92.00 248.00
C 88.00 248.00 84.00 248.00 80.00 248.00
C 80.00 242.67 80.00 237.33 80.00 232.00
C 66.67 232.00 53.33 232.00 40.00 232.00
C 39.98 236.10 40.47 240.63 39.00 244.00
C 34.26 254.85 7.30 247.13 16.00 232.00
C 4.80 233.58 5.56 214.75 16.00 215.00
C 16.00 210.00 16.00 205.00 16.00 200.00
C 16.00 192.46 17.08 189.34 20.00 183.00
C 20.53 181.85 21.66 181.21 22.00 180.00
C 14.43 181.96 6.33 178.42 8.00 170.00 C 9.67 161.58 18.34 163.39 25.00 163.00
C 25.00 156.44 25.63 149.79 27.00 144.00
C 27.37 142.45 27.37 141.49 28.00 140.00
C 29.51 136.44 32.80 133.13 36.00 131.00
C 41.75 127.18 48.19 128.00 55.00 128.00
C 65.14 128.00 77.03 127.52 87.00 128.00 C 96.97 128.48 107.67 125.46 116.00 131.00
C 118.59 132.72 121.40 135.39 123.00 138.00
C 124.29 140.10 124.43 141.70 125.00 144.00
C 126.18 148.78 127.00 154.57 127.00 160.00
C 128.40 158.79 130.26 159.02 132.00 159.00
C 135.60 158.29 139.71 155.50 144.00 156.00
C 143.50 152.74 144.37 149.28 144.00 146.00
C 130.92 139.82 133.61 125.18 119.33 123.67 C 105.05 122.16 112.97 92.05 128.00 100.00
C 128.00 99.00 128.00 98.00 128.00 97.00
C 125.69 89.69 128.97 77.41 128.00 70.00 C 127.03 62.59 132.33 56.77 137.75 52.75 C 143.17 48.74 153.11 48.00 160.00 48.00
C 162.33 48.00 164.67 48.00 167.00 48.00
C 177.05 48.00 191.57 49.11 196.75 59.25 C 201.94 69.38 201.05 85.35 200.00 97.00 Z"
          />
        </g>
        <g
          fill="None"
          fillOpacity="0.0"
          stroke="#CBCBCB"
          strokeOpacity="0.95"
          strokeWidth="0.3"
        >
          <path
            d="
M 42.00 92.00 
C 43.04 84.37 56.76 76.90 61.75 70.75 C 66.74 64.60 75.98 55.18 82.25 50.25 C 88.52 45.32 96.27 31.05 104.00 30.00
C 96.47 22.70 104.88 14.66 108.00 8.00
C 93.41 2.67 82.42 15.82 84.00 28.00 C 85.58 40.18 73.25 46.25 65.75 53.75 C 58.25 61.25 52.18 73.58 40.00 72.00 C 27.82 70.42 14.67 81.41 20.00 96.00
C 25.35 93.75 36.54 83.27 42.00 92.00 Z"
          />
        </g>
        <g
          fill="None"
          fillOpacity="0.0"
          stroke="#B3B3B3"
          strokeOpacity="0.96"
          strokeWidth="0.3"
        >
          <path
            d="
M 104.00 30.00 
C 96.27 31.05 88.52 45.32 82.25 50.25 C 75.98 55.18 66.74 64.60 61.75 70.75 C 56.76 76.90 43.04 84.37 42.00 92.00
C 46.14 99.81 38.48 105.58 36.00 112.00
C 50.59 117.33 61.58 104.18 60.00 92.00 C 58.42 79.82 70.75 73.75 78.25 66.25 C 85.75 58.75 91.82 46.42 104.00 48.00 C 116.18 49.58 129.33 38.59 124.00 24.00
C 120.70 25.86 118.12 26.07 115.23 29.23 C 112.34 32.39 107.18 29.57 104.00 30.00 Z"
          />
        </g>
        <g
          fill="None"
          fillOpacity="0.0"
          stroke="#337BBA"
          strokeOpacity="0.99"
          strokeWidth="0.3"
        >
          <path
            d="
M 128.00 97.00 
C 133.72 115.10 149.46 103.42 163.00 104.00 C 176.54 104.58 190.38 113.14 199.00 97.00
C 198.11 93.15 187.77 90.84 184.00 90.00
C 171.06 87.13 156.99 87.52 144.00 90.00
C 143.17 74.21 141.65 53.08 160.00 48.00
C 153.11 48.00 143.17 48.74 137.75 52.75 C 132.33 56.77 127.03 62.59 128.00 70.00 C 128.97 77.41 125.69 89.69 128.00 97.00 Z"
          />
        </g>
        <g
          fill="None"
          fillOpacity="0.0"
          stroke="#46A6EC"
          strokeOpacity="1.00"
          strokeWidth="0.3"
        >
          <path
            d="
M 184.00 90.00 
C 184.91 74.81 186.29 50.99 167.00 48.00
C 164.67 48.00 162.33 48.00 160.00 48.00
C 141.65 53.08 143.17 74.21 144.00 90.00
C 156.99 87.52 171.06 87.13 184.00 90.00
M 167.00 60.00 
C 176.53 62.56 171.17 79.79 161.33 75.67 C 151.49 71.55 156.79 57.26 167.00 60.00 Z"
          />
        </g>
        <g
          fill="None"
          fillOpacity="0.0"
          stroke="#3988C9"
          strokeOpacity="0.98"
          strokeWidth="0.3"
        >
          <path
            d="
M 184.00 90.00 
C 187.77 90.84 198.11 93.15 199.00 97.00
C 199.11 96.79 200.00 97.00 200.00 97.00
C 201.05 85.35 201.94 69.38 196.75 59.25 C 191.57 49.11 177.05 48.00 167.00 48.00
C 186.29 50.99 184.91 74.81 184.00 90.00 Z"
          />
        </g>
        <g
          fill="None"
          fillOpacity="0.0"
          stroke="#2F79BA"
          strokeOpacity="1.00"
          strokeWidth="0.3"
        >
          <path
            d="
M 167.00 60.00 
C 156.79 57.26 151.49 71.55 161.33 75.67 C 171.17 79.79 176.53 62.56 167.00 60.00 Z"
          />
        </g>
        <g
          fill="None"
          fillOpacity="0.0"
          stroke="#F5BB85"
          strokeOpacity="0.98"
          strokeWidth="0.3"
        >
          <path
            d="
M 144.00 156.00 
C 147.16 176.74 181.39 177.08 184.00 156.00
C 184.00 152.67 184.00 149.33 184.00 146.00
C 196.98 139.69 194.53 125.28 208.77 123.77 C 223.01 122.26 214.94 91.91 200.00 100.00
C 200.04 99.00 199.95 98.00 200.00 97.00
C 200.00 97.00 199.11 96.79 199.00 97.00
C 190.38 113.14 176.54 104.58 163.00 104.00 C 149.46 103.42 133.72 115.10 128.00 97.00
C 128.00 98.00 128.00 99.00 128.00 100.00
C 112.97 92.05 105.05 122.16 119.33 123.67 C 133.61 125.18 130.92 139.82 144.00 146.00
C 144.37 149.28 143.50 152.74 144.00 156.00 Z"
          />
        </g>
        <g
          fill="None"
          fillOpacity="0.0"
          stroke="#C0423D"
          strokeOpacity="0.98"
          strokeWidth="0.3"
        >
          <path
            d="
M 36.00 131.00 
C 33.61 132.87 29.33 137.60 28.00 140.00
C 27.37 141.49 27.37 142.45 27.00 144.00
C 28.89 142.68 36.59 144.00 39.00 144.00
C 40.45 136.55 47.84 129.48 55.00 128.00
C 48.19 128.00 41.75 127.18 36.00 131.00 Z"
          />
        </g>
        <g
          fill="None"
          fillOpacity="0.0"
          stroke="#E05240"
          strokeOpacity="1.00"
          strokeWidth="0.3"
        >
          <path
            d="
M 39.00 144.00 
C 45.91 144.00 53.12 143.74 60.00 144.00 C 66.88 144.26 75.33 143.34 82.00 144.00 C 88.67 144.66 96.93 142.41 103.00 144.00 C 109.07 145.59 120.16 140.61 125.00 144.00
C 124.43 141.70 124.29 140.10 123.00 138.00
C 121.65 136.13 117.78 132.39 116.00 131.00
C 107.67 125.46 96.97 128.48 87.00 128.00 C 77.03 127.52 65.14 128.00 55.00 128.00
C 47.84 129.48 40.45 136.55 39.00 144.00 Z"
          />
        </g>
        <g
          fill="None"
          fillOpacity="0.0"
          stroke="#886883"
          strokeOpacity="0.47"
          strokeWidth="0.3"
        >
          <path
            d="
M 28.00 140.00 
C 29.33 137.60 33.61 132.87 36.00 131.00
C 32.80 133.13 29.51 136.44 28.00 140.00 Z"
          />
        </g>
        <g
          fill="None"
          fillOpacity="0.0"
          stroke="#9D6B7D"
          strokeOpacity="0.65"
          strokeWidth="0.3"
        >
          <path
            d="
M 123.00 138.00 
C 121.40 135.39 118.59 132.72 116.00 131.00
C 117.78 132.39 121.65 136.13 123.00 138.00 Z"
          />
        </g>
        <g
          fill="None"
          fillOpacity="0.0"
          stroke="#439DE1"
          strokeOpacity="1.00"
          strokeWidth="0.3"
        >
          <path
            d="
M 25.00 163.00 
C 25.00 168.44 25.31 173.88 24.00 179.00
C 25.28 179.53 25.86 178.03 27.00 178.00
C 33.65 172.56 45.44 176.91 54.00 176.00 C 62.56 175.09 75.08 176.00 84.00 176.00
C 82.05 156.93 102.32 150.71 113.00 164.00
C 113.49 163.93 114.55 164.16 115.00 164.00
C 117.66 163.07 120.88 161.54 124.00 161.00
C 120.18 189.69 114.56 217.97 116.00 248.00
C 150.67 248.00 185.33 248.00 220.00 248.00
C 220.08 240.67 219.89 232.21 220.00 225.00 C 220.11 217.79 219.74 210.40 218.07 203.93 C 216.41 197.45 218.29 188.85 216.00 183.00 C 213.71 177.15 216.87 167.57 213.00 163.00
C 207.38 161.63 201.61 160.43 196.00 159.00
C 199.19 164.67 194.40 174.39 196.00 181.00 C 197.60 187.61 194.80 197.13 196.00 204.00
C 174.67 204.00 153.33 204.00 132.00 204.00
C 132.00 189.00 132.00 174.00 132.00 159.00
C 130.26 159.02 128.40 158.79 127.00 160.00
C 127.00 154.57 126.18 148.78 125.00 144.00
C 120.16 140.61 109.07 145.59 103.00 144.00 C 96.93 142.41 88.67 144.66 82.00 144.00 C 75.33 143.34 66.88 144.26 60.00 144.00 C 53.12 143.74 45.91 144.00 39.00 144.00
C 36.59 144.00 28.89 142.68 27.00 144.00
C 25.63 149.79 25.00 156.44 25.00 163.00
M 200.00 228.00 
C 202.68 239.70 190.27 235.59 182.00 236.00 C 173.73 236.41 163.62 235.79 155.00 236.00 C 146.38 236.21 136.72 235.84 128.00 236.00
C 125.32 224.30 137.73 228.41 146.00 228.00 C 154.27 227.59 164.38 228.21 173.00 228.00 C 181.62 227.79 191.28 228.16 200.00 228.00 Z"
          />
        </g>
        <g
          fill="None"
          fillOpacity="0.0"
          stroke="#3889CB"
          strokeOpacity="1.00"
          strokeWidth="0.3"
        >
          <path
            d="
M 84.00 176.00 
C 85.49 176.00 87.57 176.38 89.00 176.00
C 89.77 175.16 91.21 173.72 92.00 173.00
C 93.64 169.46 92.08 167.48 96.08 165.08 C 100.08 162.68 101.97 165.75 105.00 166.00
C 107.51 165.22 110.36 164.36 113.00 164.00
C 102.32 150.71 82.05 156.93 84.00 176.00 Z"
          />
        </g>
        <g
          fill="None"
          fillOpacity="0.0"
          stroke="#CBCBCB"
          strokeOpacity="1.00"
          strokeWidth="0.3"
        >
          <path
            d="
M 132.00 159.00 
C 132.00 174.00 132.00 189.00 132.00 204.00
C 153.33 204.00 174.67 204.00 196.00 204.00
C 194.80 197.13 197.60 187.61 196.00 181.00 C 194.40 174.39 199.19 164.67 196.00 159.00
C 192.44 158.09 188.25 155.65 184.00 156.00
C 181.39 177.08 147.16 176.74 144.00 156.00
C 139.71 155.50 135.60 158.29 132.00 159.00 Z"
          />
        </g>
        <g
          fill="None"
          fillOpacity="0.0"
          stroke="#3178B8"
          strokeOpacity="1.00"
          strokeWidth="0.3"
        >
          <path
            d="
M 115.00 164.00 
C 116.20 165.08 114.09 167.51 114.00 168.00
C 109.19 194.11 108.17 220.75 108.00 248.00
C 110.67 248.00 113.33 248.00 116.00 248.00
C 114.56 217.97 120.18 189.69 124.00 161.00
C 120.88 161.54 117.66 163.07 115.00 164.00 Z"
          />
        </g>
        <g
          fill="None"
          fillOpacity="0.0"
          stroke="#C23F39"
          strokeOpacity="0.91"
          strokeWidth="0.3"
        >
          <path
            d="
M 20.00 183.00 
C 21.56 181.61 23.72 181.94 25.00 181.00
C 25.81 180.41 26.28 178.59 27.00 178.00
C 25.86 178.03 25.28 179.53 24.00 179.00
C 25.31 173.88 25.00 168.44 25.00 163.00
C 18.34 163.39 9.67 161.58 8.00 170.00 C 6.33 178.42 14.43 181.96 22.00 180.00
C 21.66 181.21 20.53 181.85 20.00 183.00 Z"
          />
        </g>
        <g
          fill="None"
          fillOpacity="0.0"
          stroke="#CBCBCB"
          strokeOpacity="0.99"
          strokeWidth="0.3"
        >
          <path
            d="
M 220.00 248.00 
C 229.33 248.00 238.67 248.00 248.00 248.00
C 246.75 229.77 250.15 206.41 246.93 189.07 C 243.71 171.73 227.03 166.42 213.00 163.00
C 216.87 167.57 213.71 177.15 216.00 183.00 C 218.29 188.85 216.41 197.45 218.07 203.93 C 219.74 210.40 220.11 217.79 220.00 225.00 C 219.89 232.21 220.08 240.67 220.00 248.00 Z"
          />
        </g>
        <g
          fill="None"
          fillOpacity="0.0"
          stroke="#4DA6E8"
          strokeOpacity="1.00"
          strokeWidth="0.3"
        >
          <path
            d="
M 92.00 173.00 
C 95.51 169.79 100.57 167.38 105.00 166.00
C 101.97 165.75 100.08 162.68 96.08 165.08 C 92.08 167.48 93.64 169.46 92.00 173.00 Z"
          />
        </g>
        <g
          fill="None"
          fillOpacity="0.0"
          stroke="#B2B2B3"
          strokeOpacity="1.00"
          strokeWidth="0.3"
        >
          <path
            d="
M 105.00 166.00 
C 100.57 167.38 95.51 169.79 92.00 173.00
C 91.21 173.72 89.77 175.16 89.00 176.00
C 83.08 182.48 80.58 191.49 80.00 200.00
C 79.64 205.28 80.00 210.71 80.00 216.00
C 80.00 218.67 80.00 221.33 80.00 224.00
C 80.00 226.67 80.00 229.33 80.00 232.00
C 80.00 237.33 80.00 242.67 80.00 248.00
C 84.00 248.00 88.00 248.00 92.00 248.00
C 92.00 239.67 92.00 230.21 92.00 222.00 C 92.00 213.79 92.01 203.80 92.00 196.00 C 91.99 188.20 97.13 184.08 99.75 177.75 C 102.38 171.43 111.68 170.65 114.00 168.00
C 114.09 167.51 116.20 165.08 115.00 164.00
C 114.55 164.16 113.49 163.93 113.00 164.00
C 110.36 164.36 107.51 165.22 105.00 166.00 Z"
          />
        </g>
        <g
          fill="None"
          fillOpacity="0.0"
          stroke="#CBCBCB"
          strokeOpacity="1.00"
          strokeWidth="0.3"
        >
          <path
            d="
M 92.00 248.00 
C 97.33 248.00 102.67 248.00 108.00 248.00
C 108.17 220.75 109.19 194.11 114.00 168.00
C 111.68 170.65 102.38 171.43 99.75 177.75 C 97.13 184.08 91.99 188.20 92.00 196.00 C 92.01 203.80 92.00 213.79 92.00 222.00 C 92.00 230.21 92.00 239.67 92.00 248.00 Z"
          />
        </g>
        <g
          fill="None"
          fillOpacity="0.0"
          stroke="#E05240"
          strokeOpacity="1.00"
          strokeWidth="0.3"
        >
          <path
            d="
M 27.00 178.00 
C 26.28 178.59 25.81 180.41 25.00 181.00
C 31.04 181.24 42.45 188.79 39.67 195.67 C 36.89 202.55 32.86 200.00 28.00 200.00
C 31.09 201.14 32.86 207.02 37.22 206.78 C 41.59 206.53 47.47 210.07 52.00 208.00
C 57.76 197.55 69.31 200.07 80.00 200.00
C 80.58 191.49 83.08 182.48 89.00 176.00
C 87.57 176.38 85.49 176.00 84.00 176.00
C 75.08 176.00 62.56 175.09 54.00 176.00 C 45.44 176.91 33.65 172.56 27.00 178.00 Z"
          />
        </g>
        <g
          fill="None"
          fillOpacity="0.0"
          stroke="#F4CB53"
          strokeOpacity="0.99"
          strokeWidth="0.3"
        >
          <path
            d="
M 20.00 183.00 
C 17.08 189.34 16.00 192.46 16.00 200.00
C 20.00 200.00 24.00 200.00 28.00 200.00
C 32.86 200.00 36.89 202.55 39.67 195.67 C 42.45 188.79 31.04 181.24 25.00 181.00
C 23.72 181.94 21.56 181.61 20.00 183.00 Z"
          />
        </g>
        <g
          fill="None"
          fillOpacity="0.0"
          stroke="#C13E37"
          strokeOpacity="1.00"
          strokeWidth="0.3"
        >
          <path
            d="
M 16.00 215.00 
C 16.00 215.50 16.00 216.00 16.00 216.00
C 26.94 216.99 38.51 214.97 49.00 215.00
C 50.02 214.15 51.19 209.47 52.00 208.00
C 47.47 210.07 41.59 206.53 37.22 206.78 C 32.86 207.02 31.09 201.14 28.00 200.00
C 24.00 200.00 20.00 200.00 16.00 200.00
C 16.00 205.00 16.00 210.00 16.00 215.00 Z"
          />
        </g>
        <g
          fill="None"
          fillOpacity="0.0"
          stroke="#435259"
          strokeOpacity="1.00"
          strokeWidth="0.3"
        >
          <path
            d="
M 52.00 208.00 
C 51.19 209.47 50.02 214.15 49.00 215.00
C 58.43 215.03 69.82 217.06 80.00 216.00
C 80.00 210.71 79.64 205.28 80.00 200.00
C 69.31 200.07 57.76 197.55 52.00 208.00 Z"
          />
        </g>
        <g
          fill="None"
          fillOpacity="0.0"
          stroke="#45565E"
          strokeOpacity="0.96"
          strokeWidth="0.3"
        >
          <path
            d="
M 39.00 244.00 
C 38.21 242.01 28.62 245.53 25.33 243.67 C 22.04 241.81 18.02 236.91 20.00 232.00
C 26.67 232.00 33.33 232.00 40.00 232.00
C 53.33 232.00 66.67 232.00 80.00 232.00
C 80.00 229.33 80.00 226.67 80.00 224.00
C 70.02 223.39 53.30 224.81 44.00 224.00 C 34.70 223.19 16.25 228.45 16.00 216.00
C 16.00 216.00 16.00 215.50 16.00 215.00
C 5.56 214.75 4.80 233.58 16.00 232.00
C 7.30 247.13 34.26 254.85 39.00 244.00 Z"
          />
        </g>
        <g
          fill="None"
          fillOpacity="0.0"
          stroke="#586D78"
          strokeOpacity="1.00"
          strokeWidth="0.3"
        >
          <path
            d="
M 16.00 216.00 
C 16.25 228.45 34.70 223.19 44.00 224.00 C 53.30 224.81 70.02 223.39 80.00 224.00
C 80.00 221.33 80.00 218.67 80.00 216.00
C 69.82 217.06 58.43 215.03 49.00 215.00
C 38.51 214.97 26.94 216.99 16.00 216.00 Z"
          />
        </g>
        <g
          fill="None"
          fillOpacity="0.0"
          stroke="#2E77B8"
          strokeOpacity="1.00"
          strokeWidth="0.3"
        >
          <path
            d="
M 200.00 228.00 
C 191.28 228.16 181.62 227.79 173.00 228.00 C 164.38 228.21 154.27 227.59 146.00 228.00 C 137.73 228.41 125.32 224.30 128.00 236.00
C 136.72 235.84 146.38 236.21 155.00 236.00 C 163.62 235.79 173.73 236.41 182.00 236.00 C 190.27 235.59 202.68 239.70 200.00 228.00 Z"
          />
        </g>
        <g
          fill="None"
          fillOpacity="0.0"
          stroke="#283237"
          strokeOpacity="1.00"
          strokeWidth="0.3"
        >
          <path
            d="
M 39.00 244.00 
C 40.47 240.63 39.98 236.10 40.00 232.00
C 33.33 232.00 26.67 232.00 20.00 232.00
C 18.02 236.91 22.04 241.81 25.33 243.67 C 28.62 245.53 38.21 242.01 39.00 244.00 Z"
          />
        </g>
        <g fill="#000000" fillOpacity="0.00" stroke="None">
          <path
            d="
M 0.00 256.00 
L 256.00 256.00
L 256.00 0.00
L 0.00 0.00
L 0.00 256.00
M 104.00 30.00 
C 107.18 29.57 112.34 32.39 115.23 29.23 C 118.12 26.07 120.70 25.86 124.00 24.00
C 129.33 38.59 116.18 49.58 104.00 48.00 C 91.82 46.42 85.75 58.75 78.25 66.25 C 70.75 73.75 58.42 79.82 60.00 92.00 C 61.58 104.18 50.59 117.33 36.00 112.00
C 38.48 105.58 46.14 99.81 42.00 92.00
C 36.54 83.27 25.35 93.75 20.00 96.00
C 14.67 81.41 27.82 70.42 40.00 72.00 C 52.18 73.58 58.25 61.25 65.75 53.75 C 73.25 46.25 85.58 40.18 84.00 28.00 C 82.42 15.82 93.41 2.67 108.00 8.00
C 104.88 14.66 96.47 22.70 104.00 30.00
M 200.00 97.00 
C 199.95 98.00 200.04 99.00 200.00 100.00
C 214.94 91.91 223.01 122.26 208.77 123.77 C 194.53 125.28 196.98 139.69 184.00 146.00
C 184.00 149.33 184.00 152.67 184.00 156.00
C 188.25 155.65 192.44 158.09 196.00 159.00
C 201.61 160.43 207.38 161.63 213.00 163.00
C 227.03 166.42 243.71 171.73 246.93 189.07 C 250.15 206.41 246.75 229.77 248.00 248.00
C 238.67 248.00 229.33 248.00 220.00 248.00
C 185.33 248.00 150.67 248.00 116.00 248.00
C 113.33 248.00 110.67 248.00 108.00 248.00
C 102.67 248.00 97.33 248.00 92.00 248.00
C 88.00 248.00 84.00 248.00 80.00 248.00
C 80.00 242.67 80.00 237.33 80.00 232.00
C 66.67 232.00 53.33 232.00 40.00 232.00
C 39.98 236.10 40.47 240.63 39.00 244.00
C 34.26 254.85 7.30 247.13 16.00 232.00
C 4.80 233.58 5.56 214.75 16.00 215.00
C 16.00 210.00 16.00 205.00 16.00 200.00
C 16.00 192.46 17.08 189.34 20.00 183.00
C 20.53 181.85 21.66 181.21 22.00 180.00
C 14.43 181.96 6.33 178.42 8.00 170.00 C 9.67 161.58 18.34 163.39 25.00 163.00
C 25.00 156.44 25.63 149.79 27.00 144.00
C 27.37 142.45 27.37 141.49 28.00 140.00
C 29.51 136.44 32.80 133.13 36.00 131.00
C 41.75 127.18 48.19 128.00 55.00 128.00
C 65.14 128.00 77.03 127.52 87.00 128.00 C 96.97 128.48 107.67 125.46 116.00 131.00
C 118.59 132.72 121.40 135.39 123.00 138.00
C 124.29 140.10 124.43 141.70 125.00 144.00
C 126.18 148.78 127.00 154.57 127.00 160.00
C 128.40 158.79 130.26 159.02 132.00 159.00
C 135.60 158.29 139.71 155.50 144.00 156.00
C 143.50 152.74 144.37 149.28 144.00 146.00
C 130.92 139.82 133.61 125.18 119.33 123.67 C 105.05 122.16 112.97 92.05 128.00 100.00
C 128.00 99.00 128.00 98.00 128.00 97.00
C 125.69 89.69 128.97 77.41 128.00 70.00 C 127.03 62.59 132.33 56.77 137.75 52.75 C 143.17 48.74 153.11 48.00 160.00 48.00
C 162.33 48.00 164.67 48.00 167.00 48.00
C 177.05 48.00 191.57 49.11 196.75 59.25 C 201.94 69.38 201.05 85.35 200.00 97.00 Z"
          />
        </g>
        <g fill="#CBCBCB" fillOpacity="0.95" stroke="None">
          <path
            d="
M 42.00 92.00 
C 43.04 84.37 56.76 76.90 61.75 70.75 C 66.74 64.60 75.98 55.18 82.25 50.25 C 88.52 45.32 96.27 31.05 104.00 30.00
C 96.47 22.70 104.88 14.66 108.00 8.00
C 93.41 2.67 82.42 15.82 84.00 28.00 C 85.58 40.18 73.25 46.25 65.75 53.75 C 58.25 61.25 52.18 73.58 40.00 72.00 C 27.82 70.42 14.67 81.41 20.00 96.00
C 25.35 93.75 36.54 83.27 42.00 92.00 Z"
          />
        </g>
        <g fill="#B3B3B3" fillOpacity="0.96" stroke="None">
          <path
            d="
M 104.00 30.00 
C 96.27 31.05 88.52 45.32 82.25 50.25 C 75.98 55.18 66.74 64.60 61.75 70.75 C 56.76 76.90 43.04 84.37 42.00 92.00
C 46.14 99.81 38.48 105.58 36.00 112.00
C 50.59 117.33 61.58 104.18 60.00 92.00 C 58.42 79.82 70.75 73.75 78.25 66.25 C 85.75 58.75 91.82 46.42 104.00 48.00 C 116.18 49.58 129.33 38.59 124.00 24.00
C 120.70 25.86 118.12 26.07 115.23 29.23 C 112.34 32.39 107.18 29.57 104.00 30.00 Z"
          />
        </g>
        <g fill="#337BBA" fillOpacity="0.99" stroke="None">
          <path
            d="
M 128.00 97.00 
C 133.72 115.10 149.46 103.42 163.00 104.00 C 176.54 104.58 190.38 113.14 199.00 97.00
C 198.11 93.15 187.77 90.84 184.00 90.00
C 171.06 87.13 156.99 87.52 144.00 90.00
C 143.17 74.21 141.65 53.08 160.00 48.00
C 153.11 48.00 143.17 48.74 137.75 52.75 C 132.33 56.77 127.03 62.59 128.00 70.00 C 128.97 77.41 125.69 89.69 128.00 97.00 Z"
          />
        </g>
        <g fill="#46A6EC" fillOpacity="1.00" stroke="None">
          <path
            d="
M 184.00 90.00 
C 184.91 74.81 186.29 50.99 167.00 48.00
C 164.67 48.00 162.33 48.00 160.00 48.00
C 141.65 53.08 143.17 74.21 144.00 90.00
C 156.99 87.52 171.06 87.13 184.00 90.00
M 167.00 60.00 
C 176.53 62.56 171.17 79.79 161.33 75.67 C 151.49 71.55 156.79 57.26 167.00 60.00 Z"
          />
        </g>
        <g fill="#3988C9" fillOpacity="0.98" stroke="None">
          <path
            d="
M 184.00 90.00 
C 187.77 90.84 198.11 93.15 199.00 97.00
C 199.11 96.79 200.00 97.00 200.00 97.00
C 201.05 85.35 201.94 69.38 196.75 59.25 C 191.57 49.11 177.05 48.00 167.00 48.00
C 186.29 50.99 184.91 74.81 184.00 90.00 Z"
          />
        </g>
        <g fill="#2F79BA" fillOpacity="1.00" stroke="None">
          <path
            d="
M 167.00 60.00 
C 156.79 57.26 151.49 71.55 161.33 75.67 C 171.17 79.79 176.53 62.56 167.00 60.00 Z"
          />
        </g>
        <g fill="#F5BB85" fillOpacity="0.98" stroke="None">
          <path
            d="
M 144.00 156.00 
C 147.16 176.74 181.39 177.08 184.00 156.00
C 184.00 152.67 184.00 149.33 184.00 146.00
C 196.98 139.69 194.53 125.28 208.77 123.77 C 223.01 122.26 214.94 91.91 200.00 100.00
C 200.04 99.00 199.95 98.00 200.00 97.00
C 200.00 97.00 199.11 96.79 199.00 97.00
C 190.38 113.14 176.54 104.58 163.00 104.00 C 149.46 103.42 133.72 115.10 128.00 97.00
C 128.00 98.00 128.00 99.00 128.00 100.00
C 112.97 92.05 105.05 122.16 119.33 123.67 C 133.61 125.18 130.92 139.82 144.00 146.00
C 144.37 149.28 143.50 152.74 144.00 156.00 Z"
          />
        </g>
        <g fill="#C0423D" fillOpacity="0.98" stroke="None">
          <path
            d="
M 36.00 131.00 
C 33.61 132.87 29.33 137.60 28.00 140.00
C 27.37 141.49 27.37 142.45 27.00 144.00
C 28.89 142.68 36.59 144.00 39.00 144.00
C 40.45 136.55 47.84 129.48 55.00 128.00
C 48.19 128.00 41.75 127.18 36.00 131.00 Z"
          />
        </g>
        <g fill="#E05240" fillOpacity="1.00" stroke="None">
          <path
            d="
M 39.00 144.00 
C 45.91 144.00 53.12 143.74 60.00 144.00 C 66.88 144.26 75.33 143.34 82.00 144.00 C 88.67 144.66 96.93 142.41 103.00 144.00 C 109.07 145.59 120.16 140.61 125.00 144.00
C 124.43 141.70 124.29 140.10 123.00 138.00
C 121.65 136.13 117.78 132.39 116.00 131.00
C 107.67 125.46 96.97 128.48 87.00 128.00 C 77.03 127.52 65.14 128.00 55.00 128.00
C 47.84 129.48 40.45 136.55 39.00 144.00 Z"
          />
        </g>
        <g fill="#886883" fillOpacity="0.47" stroke="None">
          <path
            d="
M 28.00 140.00 
C 29.33 137.60 33.61 132.87 36.00 131.00
C 32.80 133.13 29.51 136.44 28.00 140.00 Z"
          />
        </g>
        <g fill="#9D6B7D" fillOpacity="0.65" stroke="None">
          <path
            d="
M 123.00 138.00 
C 121.40 135.39 118.59 132.72 116.00 131.00
C 117.78 132.39 121.65 136.13 123.00 138.00 Z"
          />
        </g>
        <g fill="#439DE1" fillOpacity="1.00" stroke="None">
          <path
            d="
M 25.00 163.00 
C 25.00 168.44 25.31 173.88 24.00 179.00
C 25.28 179.53 25.86 178.03 27.00 178.00
C 33.65 172.56 45.44 176.91 54.00 176.00 C 62.56 175.09 75.08 176.00 84.00 176.00
C 82.05 156.93 102.32 150.71 113.00 164.00
C 113.49 163.93 114.55 164.16 115.00 164.00
C 117.66 163.07 120.88 161.54 124.00 161.00
C 120.18 189.69 114.56 217.97 116.00 248.00
C 150.67 248.00 185.33 248.00 220.00 248.00
C 220.08 240.67 219.89 232.21 220.00 225.00 C 220.11 217.79 219.74 210.40 218.07 203.93 C 216.41 197.45 218.29 188.85 216.00 183.00 C 213.71 177.15 216.87 167.57 213.00 163.00
C 207.38 161.63 201.61 160.43 196.00 159.00
C 199.19 164.67 194.40 174.39 196.00 181.00 C 197.60 187.61 194.80 197.13 196.00 204.00
C 174.67 204.00 153.33 204.00 132.00 204.00
C 132.00 189.00 132.00 174.00 132.00 159.00
C 130.26 159.02 128.40 158.79 127.00 160.00
C 127.00 154.57 126.18 148.78 125.00 144.00
C 120.16 140.61 109.07 145.59 103.00 144.00 C 96.93 142.41 88.67 144.66 82.00 144.00 C 75.33 143.34 66.88 144.26 60.00 144.00 C 53.12 143.74 45.91 144.00 39.00 144.00
C 36.59 144.00 28.89 142.68 27.00 144.00
C 25.63 149.79 25.00 156.44 25.00 163.00
M 200.00 228.00 
C 202.68 239.70 190.27 235.59 182.00 236.00 C 173.73 236.41 163.62 235.79 155.00 236.00 C 146.38 236.21 136.72 235.84 128.00 236.00
C 125.32 224.30 137.73 228.41 146.00 228.00 C 154.27 227.59 164.38 228.21 173.00 228.00 C 181.62 227.79 191.28 228.16 200.00 228.00 Z"
          />
        </g>
        <g fill="#3889CB" fillOpacity="1.00" stroke="None">
          <path
            d="
M 84.00 176.00 
C 85.49 176.00 87.57 176.38 89.00 176.00
C 89.77 175.16 91.21 173.72 92.00 173.00
C 93.64 169.46 92.08 167.48 96.08 165.08 C 100.08 162.68 101.97 165.75 105.00 166.00
C 107.51 165.22 110.36 164.36 113.00 164.00
C 102.32 150.71 82.05 156.93 84.00 176.00 Z"
          />
        </g>
        <g fill="#CBCBCB" fillOpacity="1.00" stroke="None">
          <path
            d="
M 132.00 159.00 
C 132.00 174.00 132.00 189.00 132.00 204.00
C 153.33 204.00 174.67 204.00 196.00 204.00
C 194.80 197.13 197.60 187.61 196.00 181.00 C 194.40 174.39 199.19 164.67 196.00 159.00
C 192.44 158.09 188.25 155.65 184.00 156.00
C 181.39 177.08 147.16 176.74 144.00 156.00
C 139.71 155.50 135.60 158.29 132.00 159.00 Z"
          />
        </g>
        <g fill="#3178B8" fillOpacity="1.00" stroke="None">
          <path
            d="
M 115.00 164.00 
C 116.20 165.08 114.09 167.51 114.00 168.00
C 109.19 194.11 108.17 220.75 108.00 248.00
C 110.67 248.00 113.33 248.00 116.00 248.00
C 114.56 217.97 120.18 189.69 124.00 161.00
C 120.88 161.54 117.66 163.07 115.00 164.00 Z"
          />
        </g>
        <g fill="#C23F39" fillOpacity="0.91" stroke="None">
          <path
            d="
M 20.00 183.00 
C 21.56 181.61 23.72 181.94 25.00 181.00
C 25.81 180.41 26.28 178.59 27.00 178.00
C 25.86 178.03 25.28 179.53 24.00 179.00
C 25.31 173.88 25.00 168.44 25.00 163.00
C 18.34 163.39 9.67 161.58 8.00 170.00 C 6.33 178.42 14.43 181.96 22.00 180.00
C 21.66 181.21 20.53 181.85 20.00 183.00 Z"
          />
        </g>
        <g fill="#CBCBCB" fillOpacity="0.99" stroke="None">
          <path
            d="
M 220.00 248.00 
C 229.33 248.00 238.67 248.00 248.00 248.00
C 246.75 229.77 250.15 206.41 246.93 189.07 C 243.71 171.73 227.03 166.42 213.00 163.00
C 216.87 167.57 213.71 177.15 216.00 183.00 C 218.29 188.85 216.41 197.45 218.07 203.93 C 219.74 210.40 220.11 217.79 220.00 225.00 C 219.89 232.21 220.08 240.67 220.00 248.00 Z"
          />
        </g>
        <g fill="#4DA6E8" fillOpacity="1.00" stroke="None">
          <path
            d="
M 92.00 173.00 
C 95.51 169.79 100.57 167.38 105.00 166.00
C 101.97 165.75 100.08 162.68 96.08 165.08 C 92.08 167.48 93.64 169.46 92.00 173.00 Z"
          />
        </g>
        <g fill="#B2B2B3" fillOpacity="1.00" stroke="None">
          <path
            d="
M 105.00 166.00 
C 100.57 167.38 95.51 169.79 92.00 173.00
C 91.21 173.72 89.77 175.16 89.00 176.00
C 83.08 182.48 80.58 191.49 80.00 200.00
C 79.64 205.28 80.00 210.71 80.00 216.00
C 80.00 218.67 80.00 221.33 80.00 224.00
C 80.00 226.67 80.00 229.33 80.00 232.00
C 80.00 237.33 80.00 242.67 80.00 248.00
C 84.00 248.00 88.00 248.00 92.00 248.00
C 92.00 239.67 92.00 230.21 92.00 222.00 C 92.00 213.79 92.01 203.80 92.00 196.00 C 91.99 188.20 97.13 184.08 99.75 177.75 C 102.38 171.43 111.68 170.65 114.00 168.00
C 114.09 167.51 116.20 165.08 115.00 164.00
C 114.55 164.16 113.49 163.93 113.00 164.00
C 110.36 164.36 107.51 165.22 105.00 166.00 Z"
          />
        </g>
        <g fill="#CBCBCB" fillOpacity="1.00" stroke="None">
          <path
            d="
M 92.00 248.00 
C 97.33 248.00 102.67 248.00 108.00 248.00
C 108.17 220.75 109.19 194.11 114.00 168.00
C 111.68 170.65 102.38 171.43 99.75 177.75 C 97.13 184.08 91.99 188.20 92.00 196.00 C 92.01 203.80 92.00 213.79 92.00 222.00 C 92.00 230.21 92.00 239.67 92.00 248.00 Z"
          />
        </g>
        <g fill="#E05240" fillOpacity="1.00" stroke="None">
          <path
            d="
M 27.00 178.00 
C 26.28 178.59 25.81 180.41 25.00 181.00
C 31.04 181.24 42.45 188.79 39.67 195.67 C 36.89 202.55 32.86 200.00 28.00 200.00
C 31.09 201.14 32.86 207.02 37.22 206.78 C 41.59 206.53 47.47 210.07 52.00 208.00
C 57.76 197.55 69.31 200.07 80.00 200.00
C 80.58 191.49 83.08 182.48 89.00 176.00
C 87.57 176.38 85.49 176.00 84.00 176.00
C 75.08 176.00 62.56 175.09 54.00 176.00 C 45.44 176.91 33.65 172.56 27.00 178.00 Z"
          />
        </g>
        <g fill="#F4CB53" fillOpacity="0.99" stroke="None">
          <path
            d="
M 20.00 183.00 
C 17.08 189.34 16.00 192.46 16.00 200.00
C 20.00 200.00 24.00 200.00 28.00 200.00
C 32.86 200.00 36.89 202.55 39.67 195.67 C 42.45 188.79 31.04 181.24 25.00 181.00
C 23.72 181.94 21.56 181.61 20.00 183.00 Z"
          />
        </g>
        <g fill="#C13E37" fillOpacity="1.00" stroke="None">
          <path
            d="
M 16.00 215.00 
C 16.00 215.50 16.00 216.00 16.00 216.00
C 26.94 216.99 38.51 214.97 49.00 215.00
C 50.02 214.15 51.19 209.47 52.00 208.00
C 47.47 210.07 41.59 206.53 37.22 206.78 C 32.86 207.02 31.09 201.14 28.00 200.00
C 24.00 200.00 20.00 200.00 16.00 200.00
C 16.00 205.00 16.00 210.00 16.00 215.00 Z"
          />
        </g>
        <g fill="#435259" fillOpacity="1.00" stroke="None">
          <path
            d="
M 52.00 208.00 
C 51.19 209.47 50.02 214.15 49.00 215.00
C 58.43 215.03 69.82 217.06 80.00 216.00
C 80.00 210.71 79.64 205.28 80.00 200.00
C 69.31 200.07 57.76 197.55 52.00 208.00 Z"
          />
        </g>
        <g fill="#45565E" fillOpacity="0.96" stroke="None">
          <path
            d="
M 39.00 244.00 
C 38.21 242.01 28.62 245.53 25.33 243.67 C 22.04 241.81 18.02 236.91 20.00 232.00
C 26.67 232.00 33.33 232.00 40.00 232.00
C 53.33 232.00 66.67 232.00 80.00 232.00
C 80.00 229.33 80.00 226.67 80.00 224.00
C 70.02 223.39 53.30 224.81 44.00 224.00 C 34.70 223.19 16.25 228.45 16.00 216.00
C 16.00 216.00 16.00 215.50 16.00 215.00
C 5.56 214.75 4.80 233.58 16.00 232.00
C 7.30 247.13 34.26 254.85 39.00 244.00 Z"
          />
        </g>
        <g fill="#586D78" fillOpacity="1.00" stroke="None">
          <path
            d="
M 16.00 216.00 
C 16.25 228.45 34.70 223.19 44.00 224.00 C 53.30 224.81 70.02 223.39 80.00 224.00
C 80.00 221.33 80.00 218.67 80.00 216.00
C 69.82 217.06 58.43 215.03 49.00 215.00
C 38.51 214.97 26.94 216.99 16.00 216.00 Z"
          />
        </g>
        <g fill="#2E77B8" fillOpacity="1.00" stroke="None">
          <path
            d="
M 200.00 228.00 
C 191.28 228.16 181.62 227.79 173.00 228.00 C 164.38 228.21 154.27 227.59 146.00 228.00 C 137.73 228.41 125.32 224.30 128.00 236.00
C 136.72 235.84 146.38 236.21 155.00 236.00 C 163.62 235.79 173.73 236.41 182.00 236.00 C 190.27 235.59 202.68 239.70 200.00 228.00 Z"
          />
        </g>
        <g fill="#283237" fillOpacity="1.00" stroke="None">
          <path
            d="
M 39.00 244.00 
C 40.47 240.63 39.98 236.10 40.00 232.00
C 33.33 232.00 26.67 232.00 20.00 232.00
C 18.02 236.91 22.04 241.81 25.33 243.67 C 28.62 245.53 38.21 242.01 39.00 244.00 Z"
          />
        </g>
      </svg>